<svg xmlns="http://www.w3.org/2000/svg" width="16" height="18" viewBox="0 0 16 18">
    <g fill="none" fill-rule="evenodd">
        <path d="M0 0L20 0 20 20 0 20z" transform="translate(-2 -1)"/>
        <path fill="#FFF" fill-rule="nonzero" d="M15 13.4c-.633 0-1.2.25-1.633.642l-5.942-3.459c.042-.191.075-.383.075-.583 0-.2-.033-.392-.075-.583L13.3 5.992c.45.416 1.042.675 1.7.675 1.383 0 2.5-1.117 2.5-2.5 0-1.384-1.117-2.5-2.5-2.5s-2.5 1.116-2.5 2.5c0 .2.033.391.075.583L6.7 8.175C6.25 7.758 5.658 7.5 5 7.5c-1.383 0-2.5 1.117-2.5 2.5s1.117 2.5 2.5 2.5c.658 0 1.25-.258 1.7-.675l5.933 3.467c-.041.175-.066.358-.066.541 0 1.342 1.091 2.434 2.433 2.434 1.342 0 2.433-1.092 2.433-2.434 0-1.341-1.091-2.433-2.433-2.433z" transform="translate(-2 -1)"/>
    </g>
</svg>
